<svg width="70" height="87" viewBox="0 0 70 87" fill="none" xmlns="http://www.w3.org/2000/svg">
<rect width="70" height="87" fill="#1E1E1E"/>
<g clip-path="url(#clip0_17_965)">
<rect width="1920" height="3746" transform="translate(-436 -37)" fill="white"/>
<rect x="-436" y="-37" width="1920" height="195" fill="#172842"/>
<path fill-rule="evenodd" clip-rule="evenodd" d="M69.1786 37.6996C68.7816 37.4641 67.5577 35.6391 66.9954 34.7561C67.3923 33.0227 67.0351 29.2812 62.4305 28.1823C57.826 27.0833 50.853 33.7422 47.9421 37.209L46.0566 39.3675C43.5096 36.9473 36.1727 31.322 27.2018 28.1823C19.3889 25.4478 11.9133 12.4256 7.6948 5.07715C5.85857 1.87853 4.63947 -0.245076 4.27832 0.0227295C3.08749 0.905779 3.08749 10.2268 4.27832 11.6986C4.75669 12.2898 4.11411 12.121 3.19327 11.8792C1.8218 11.519 -0.166935 10.9967 0.0111825 12.5816C0.30889 15.2308 1.79737 20.3329 4.27832 23.5707C5.43496 25.0802 4.49942 24.4785 3.34202 23.7341C2.01682 22.8818 0.400793 21.8424 1.30131 23.5707C1.41785 23.7944 1.54291 24.0354 1.67535 24.2906C3.46013 27.7298 6.58496 33.7514 8.24782 34.7561C9.03257 35.2302 8.45741 35.3446 7.64152 35.5068C6.60027 35.7138 5.16694 35.9988 5.66769 37.209C6.56081 39.3675 9.33941 45.1564 12.2173 45.7451C13.7205 46.0526 13.1388 46.7081 12.509 47.418C11.933 48.0672 11.3167 48.7617 12.2173 49.2773C12.5113 49.4456 12.8367 49.6425 13.1848 49.8532C15.069 50.9936 17.6187 52.5367 19.4615 52.1227C20.3071 51.9326 19.9319 52.2137 19.293 52.6921C18.2827 53.4488 16.613 54.6993 18.0722 55.3605C18.11 55.3776 18.1489 55.3953 18.189 55.4135C20.6696 56.5405 27.3926 59.595 39.2094 54.4775C39.714 54.2589 40.1273 54.1088 40.4562 54.0218C40.6304 54.945 34.9849 60.1894 30.5277 64.33C27.4492 67.1898 24.9375 69.523 25.3019 69.542C25.5483 69.5548 25.917 69.6049 26.3444 69.6629C26.5188 69.6866 26.703 69.7116 26.8927 69.7359C25.6031 70.9407 24.3192 72.1333 23.0846 73.2802C17.3841 78.5758 12.7333 82.8962 13.4081 82.9313C13.8643 82.955 14.5471 83.0477 15.3384 83.1551C17.8174 83.4915 21.3614 83.9725 22.3393 82.9313C22.8381 82.4001 22.5951 83.0132 22.2471 83.8913C21.695 85.2842 20.8785 87.3439 22.3393 86.5616C23.5661 85.9046 24.5822 84.9613 25.4012 84.2008C26.1723 83.485 26.7687 82.9313 27.2018 82.9313C27.5282 82.9313 27.6956 83.6521 27.888 84.4806C28.222 85.919 28.6314 87.6822 30.0797 86.5616C32.3621 84.7955 35.5377 81.2633 35.9346 80.0859C36.0828 79.6464 36.1618 79.9998 36.2801 80.5286C36.4787 81.4166 36.7879 82.7993 37.7209 81.7539C39.2094 80.0859 43.0797 73.1196 44.5681 67.6251C45.3199 64.8502 46.0663 64.7939 47.787 64.6644C49.4734 64.5374 52.0956 64.34 56.5757 61.4437C60.9467 58.618 60.8241 53.9776 60.6933 49.0243C60.5924 45.206 60.4867 41.2018 62.4305 37.6996C63.0701 36.5473 65.8422 37.0842 67.7793 37.4594C68.3395 37.5679 68.8298 37.6629 69.1786 37.6996ZM26.8927 69.7359C28.1584 69.8983 29.6659 70.0311 30.1252 69.542C30.3946 69.2552 30.2634 69.5863 30.0754 70.0605C29.7772 70.8127 29.3363 71.9251 30.1252 71.5026C30.7877 71.1478 31.3365 70.6383 31.7788 70.2276C32.1952 69.841 32.5173 69.542 32.7512 69.542C32.9275 69.542 33.0179 69.9313 33.1218 70.3787C33.3022 71.1555 33.5233 72.1078 34.3054 71.5026C35.538 70.5488 37.253 68.6412 37.4673 68.0054C37.5473 67.768 37.59 67.9589 37.6539 68.2445C37.7612 68.724 37.9282 69.4707 38.432 68.9062C39.2359 68.0054 41.326 64.2433 42.1298 61.2759C42.5358 59.7774 42.9389 59.747 43.8682 59.677C44.7789 59.6085 46.195 59.5018 48.6145 57.9377C50.975 56.4117 50.9088 53.9057 50.8382 51.2306C50.7837 49.1686 50.7266 47.0061 51.7764 45.1147C52.1218 44.4925 53.6188 44.7824 54.6649 44.9851C54.9675 45.0437 55.2323 45.0949 55.4206 45.1147C55.2063 44.9876 54.5453 44.002 54.2416 43.5251C54.456 42.589 54.2631 40.5684 51.7764 39.9749C49.2897 39.3815 45.524 42.9776 43.9519 44.8498L42.9337 46.0155C41.5582 44.7085 37.5959 41.6706 32.7512 39.9749C28.5319 38.4982 24.4947 31.4656 22.2165 27.4971C21.2248 25.7697 20.5665 24.6228 20.3714 24.7675C19.7283 25.2444 19.7283 30.2782 20.3714 31.073C20.6298 31.3923 20.2827 31.3011 19.7854 31.1705C19.0448 30.976 17.9708 30.6939 18.067 31.5499C18.2277 32.9805 19.0316 35.7359 20.3714 37.4845C20.9961 38.2997 20.4908 37.9747 19.8658 37.5727C19.1501 37.1124 18.2774 36.5511 18.7637 37.4845C18.8266 37.6053 18.8942 37.7354 18.9657 37.8732C19.9295 39.7306 21.6171 42.9825 22.5151 43.5251C22.9389 43.7812 22.6283 43.8429 22.1877 43.9305C21.6254 44.0423 20.8513 44.1962 21.1217 44.8498C21.6041 46.0155 23.1047 49.1418 24.6588 49.4597C25.4706 49.6258 25.1565 49.9798 24.8164 50.3632C24.5053 50.7137 24.1725 51.0889 24.6588 51.3673C24.8176 51.4582 24.9934 51.5645 25.1814 51.6783C26.1989 52.2942 27.5759 53.1275 28.571 52.9039C29.0277 52.8013 28.8251 52.9531 28.4801 53.2114C27.9344 53.6201 27.0328 54.2954 27.8208 54.6525C27.8412 54.6618 27.8622 54.6713 27.8838 54.6811C29.2235 55.2898 32.8543 56.9393 39.2359 54.1756C40.0398 53.8275 40.4145 53.801 40.4562 54.0218C44.5464 52.9399 35.5877 61.6132 26.8927 69.7359Z" fill="#EED272"/>
</g>
<defs>
<clipPath id="clip0_17_965">
<rect width="1920" height="3746" fill="white" transform="translate(-436 -37)"/>
</clipPath>
</defs>
</svg>
